<svg width="235" height="110" viewBox="0 0 235 110" fill="none" xmlns="http://www.w3.org/2000/svg">
<rect x="14" width="221" height="54" rx="4" fill="#302F2C"/>
<path d="M54.308 38.272C52.7893 38.272 51.4407 38.068 50.262 37.66C49.0833 37.252 48.0973 36.64 47.304 35.824C46.5333 35.008 45.944 33.9993 45.536 32.798C45.1507 31.5967 44.958 30.214 44.958 28.65V14.88C44.958 14.5173 45.0487 14.2567 45.23 14.098C45.4113 13.9167 45.6607 13.826 45.978 13.826C46.318 13.826 46.5787 13.9167 46.76 14.098C46.9413 14.2567 47.032 14.5173 47.032 14.88V28.48C47.032 31.132 47.644 33.1153 48.868 34.43C50.1147 35.722 51.928 36.368 54.308 36.368C56.7107 36.368 58.524 35.722 59.748 34.43C60.972 33.1153 61.584 31.132 61.584 28.48V14.88C61.584 14.5173 61.6747 14.2567 61.856 14.098C62.0373 13.9167 62.298 13.826 62.638 13.826C62.9553 13.826 63.2047 13.9167 63.386 14.098C63.5673 14.2567 63.658 14.5173 63.658 14.88V28.65C63.658 30.7353 63.3067 32.5033 62.604 33.954C61.9013 35.382 60.8473 36.4587 59.442 37.184C58.0593 37.9093 56.348 38.272 54.308 38.272ZM69.3575 38C69.1308 38 68.9382 37.9547 68.7795 37.864C68.6435 37.7507 68.5415 37.6147 68.4735 37.456C68.4282 37.2747 68.4282 37.082 68.4735 36.878C68.5415 36.6513 68.6662 36.436 68.8475 36.232L78.8095 22.598V23.176H69.2215C68.9268 23.176 68.7002 23.108 68.5415 22.972C68.4055 22.8133 68.3375 22.598 68.3375 22.326C68.3375 22.0767 68.4055 21.884 68.5415 21.748C68.7002 21.5893 68.9268 21.51 69.2215 21.51H79.8295C80.1015 21.51 80.3168 21.5667 80.4755 21.68C80.6568 21.7707 80.7702 21.8953 80.8155 22.054C80.8835 22.2127 80.8949 22.394 80.8495 22.598C80.8042 22.802 80.7022 23.006 80.5435 23.21L70.4455 36.946V36.334H80.4755C81.0648 36.334 81.3595 36.606 81.3595 37.15C81.3595 37.422 81.2802 37.6373 81.1215 37.796C80.9628 37.932 80.7475 38 80.4755 38H69.3575ZM92.783 38.272C91.2417 38.272 89.927 37.8753 88.839 37.082C87.751 36.2887 87.0143 35.2233 86.629 33.886L87.003 33.682V37.15C87.003 37.49 86.9123 37.7507 86.731 37.932C86.5497 38.1133 86.3003 38.204 85.983 38.204C85.643 38.204 85.3823 38.1133 85.201 37.932C85.0197 37.7507 84.929 37.49 84.929 37.15V14.88C84.929 14.5173 85.0197 14.2567 85.201 14.098C85.3823 13.9167 85.643 13.826 85.983 13.826C86.3003 13.826 86.5497 13.9167 86.731 14.098C86.9123 14.2567 87.003 14.5173 87.003 14.88V25.59H86.629C87.0143 24.2527 87.751 23.1873 88.839 22.394C89.927 21.6007 91.2417 21.204 92.783 21.204C94.279 21.204 95.571 21.5553 96.659 22.258C97.747 22.9607 98.5857 23.9467 99.175 25.216C99.787 26.4853 100.093 27.9927 100.093 29.738C100.093 31.4833 99.787 33.002 99.175 34.294C98.5857 35.5633 97.7357 36.5493 96.625 37.252C95.537 37.932 94.2563 38.272 92.783 38.272ZM92.477 36.538C93.5877 36.538 94.551 36.2773 95.367 35.756C96.2057 35.212 96.8517 34.43 97.305 33.41C97.7583 32.39 97.985 31.166 97.985 29.738C97.985 27.5847 97.4863 25.9187 96.489 24.74C95.4917 23.5613 94.1543 22.972 92.477 22.972C91.3663 22.972 90.3917 23.244 89.553 23.788C88.737 24.3093 88.1023 25.08 87.649 26.1C87.1957 27.0973 86.969 28.31 86.969 29.738C86.969 31.914 87.4677 33.5913 88.465 34.77C89.4623 35.9487 90.7997 36.538 92.477 36.538ZM111.66 38.272C109.96 38.272 108.498 37.932 107.274 37.252C106.05 36.572 105.109 35.5973 104.452 34.328C103.794 33.0587 103.466 31.5513 103.466 29.806C103.466 28.0833 103.794 26.5873 104.452 25.318C105.109 24.026 106.016 23.0173 107.172 22.292C108.35 21.5667 109.699 21.204 111.218 21.204C112.328 21.204 113.303 21.3967 114.142 21.782C115.003 22.1447 115.728 22.6773 116.318 23.38C116.93 24.06 117.394 24.8987 117.712 25.896C118.029 26.8707 118.188 27.9813 118.188 29.228C118.188 29.5453 118.097 29.7833 117.916 29.942C117.757 30.1007 117.53 30.18 117.236 30.18H104.962V28.65H116.896L116.352 29.092C116.352 27.7773 116.159 26.6667 115.774 25.76C115.388 24.8307 114.81 24.1167 114.04 23.618C113.292 23.1193 112.362 22.87 111.252 22.87C110.005 22.87 108.951 23.1647 108.09 23.754C107.228 24.3207 106.582 25.114 106.152 26.134C105.721 27.1313 105.506 28.2873 105.506 29.602V29.772C105.506 31.948 106.038 33.6253 107.104 34.804C108.169 35.96 109.665 36.538 111.592 36.538C112.43 36.538 113.235 36.4247 114.006 36.198C114.799 35.9713 115.57 35.586 116.318 35.042C116.544 34.8833 116.76 34.804 116.964 34.804C117.19 34.804 117.372 34.8607 117.508 34.974C117.666 35.0873 117.768 35.2347 117.814 35.416C117.882 35.5747 117.87 35.756 117.78 35.96C117.712 36.1413 117.564 36.3113 117.338 36.47C116.612 37.0593 115.74 37.5127 114.72 37.83C113.7 38.1247 112.68 38.272 111.66 38.272ZM123.469 38.204C123.129 38.204 122.869 38.1133 122.687 37.932C122.506 37.7507 122.415 37.49 122.415 37.15V14.88C122.415 14.5173 122.506 14.2567 122.687 14.098C122.869 13.9167 123.129 13.826 123.469 13.826C123.787 13.826 124.036 13.9167 124.217 14.098C124.399 14.2567 124.489 14.5173 124.489 14.88V28.99H124.557L132.173 22.02C132.423 21.7933 132.638 21.612 132.819 21.476C133.023 21.34 133.284 21.272 133.601 21.272C133.873 21.272 134.089 21.3513 134.247 21.51C134.406 21.6687 134.474 21.8613 134.451 22.088C134.451 22.292 134.338 22.5187 134.111 22.768L126.019 30.146V28.82L134.825 36.64C135.097 36.8893 135.233 37.1387 135.233 37.388C135.256 37.6147 135.188 37.8073 135.029 37.966C134.871 38.1247 134.655 38.204 134.383 38.204C134.089 38.204 133.839 38.136 133.635 38C133.431 37.8867 133.182 37.694 132.887 37.422L124.557 30.078H124.489V37.15C124.489 37.8527 124.149 38.204 123.469 38.204ZM139.938 38.136C139.598 38.136 139.337 38.034 139.156 37.83C138.975 37.626 138.884 37.354 138.884 37.014V22.462C138.884 22.0993 138.975 21.8273 139.156 21.646C139.337 21.4647 139.598 21.374 139.938 21.374C140.255 21.374 140.505 21.4647 140.686 21.646C140.867 21.8273 140.958 22.0993 140.958 22.462V37.014C140.958 37.354 140.867 37.626 140.686 37.83C140.527 38.034 140.278 38.136 139.938 38.136ZM139.938 17.26C139.462 17.26 139.088 17.1353 138.816 16.886C138.567 16.6367 138.442 16.2853 138.442 15.832C138.442 15.3787 138.567 15.0387 138.816 14.812C139.088 14.5627 139.462 14.438 139.938 14.438C140.414 14.438 140.777 14.5627 141.026 14.812C141.298 15.0387 141.434 15.3787 141.434 15.832C141.434 16.2853 141.298 16.6367 141.026 16.886C140.777 17.1353 140.414 17.26 139.938 17.26ZM151.793 38.272C150.773 38.272 149.753 38.136 148.733 37.864C147.736 37.592 146.784 37.1273 145.877 36.47C145.696 36.3567 145.571 36.2207 145.503 36.062C145.458 35.8807 145.447 35.6993 145.469 35.518C145.515 35.3367 145.594 35.1893 145.707 35.076C145.843 34.94 146.002 34.8607 146.183 34.838C146.365 34.8153 146.557 34.872 146.761 35.008C147.645 35.5973 148.507 36.0053 149.345 36.232C150.184 36.4587 151.023 36.572 151.861 36.572C153.244 36.572 154.298 36.3113 155.023 35.79C155.749 35.2687 156.111 34.566 156.111 33.682C156.111 32.9567 155.873 32.4013 155.397 32.016C154.944 31.608 154.196 31.2793 153.153 31.03L150.195 30.35C148.767 30.0327 147.713 29.5227 147.033 28.82C146.353 28.0947 146.013 27.1653 146.013 26.032C146.013 25.0573 146.263 24.2073 146.761 23.482C147.283 22.7567 148.008 22.2013 148.937 21.816C149.889 21.408 150.977 21.204 152.201 21.204C153.199 21.204 154.151 21.3513 155.057 21.646C155.964 21.9407 156.757 22.394 157.437 23.006C157.619 23.142 157.732 23.3007 157.777 23.482C157.845 23.6633 157.845 23.8447 157.777 24.026C157.732 24.1847 157.641 24.3207 157.505 24.434C157.369 24.5473 157.211 24.604 157.029 24.604C156.848 24.604 156.655 24.536 156.451 24.4C155.794 23.9013 155.103 23.5387 154.377 23.312C153.652 23.0627 152.915 22.938 152.167 22.938C150.853 22.938 149.833 23.21 149.107 23.754C148.405 24.298 148.053 25.0347 148.053 25.964C148.053 26.6667 148.269 27.2333 148.699 27.664C149.153 28.0947 149.855 28.4233 150.807 28.65L153.765 29.33C155.239 29.67 156.338 30.18 157.063 30.86C157.789 31.5173 158.151 32.4127 158.151 33.546C158.151 34.9967 157.573 36.1527 156.417 37.014C155.284 37.8527 153.743 38.272 151.793 38.272ZM168.713 38.272C167.489 38.272 166.469 38.0453 165.653 37.592C164.837 37.1387 164.225 36.4927 163.817 35.654C163.409 34.7927 163.205 33.7387 163.205 32.492V23.176H160.689C160.395 23.176 160.157 23.108 159.975 22.972C159.794 22.8133 159.703 22.598 159.703 22.326C159.703 22.0767 159.794 21.884 159.975 21.748C160.157 21.5893 160.395 21.51 160.689 21.51H163.205V17.26C163.205 16.8973 163.296 16.6367 163.477 16.478C163.659 16.2967 163.919 16.206 164.259 16.206C164.577 16.206 164.826 16.2967 165.007 16.478C165.189 16.6367 165.279 16.8973 165.279 17.26V21.51H169.869C170.187 21.51 170.425 21.5893 170.583 21.748C170.742 21.884 170.821 22.0767 170.821 22.326C170.821 22.598 170.742 22.8133 170.583 22.972C170.425 23.108 170.187 23.176 169.869 23.176H165.279V32.22C165.279 33.6027 165.563 34.6567 166.129 35.382C166.696 36.1073 167.637 36.47 168.951 36.47C169.405 36.47 169.779 36.4247 170.073 36.334C170.391 36.2207 170.651 36.164 170.855 36.164C171.014 36.164 171.15 36.232 171.263 36.368C171.399 36.504 171.467 36.7193 171.467 37.014C171.467 37.1953 171.422 37.3767 171.331 37.558C171.263 37.7393 171.127 37.8527 170.923 37.898C170.674 37.9887 170.334 38.068 169.903 38.136C169.473 38.2267 169.076 38.272 168.713 38.272ZM178.98 38.272C177.869 38.272 176.872 38.0567 175.988 37.626C175.127 37.1953 174.435 36.606 173.914 35.858C173.415 35.11 173.166 34.2713 173.166 33.342C173.166 32.118 173.472 31.1547 174.084 30.452C174.696 29.7493 175.727 29.262 177.178 28.99C178.629 28.6953 180.623 28.548 183.162 28.548H184.624V30.078H183.196C181.156 30.078 179.558 30.1687 178.402 30.35C177.269 30.5087 176.475 30.8147 176.022 31.268C175.569 31.7213 175.342 32.356 175.342 33.172C175.342 34.192 175.693 35.0193 176.396 35.654C177.099 36.2887 178.051 36.606 179.252 36.606C180.227 36.606 181.077 36.3793 181.802 35.926C182.55 35.45 183.139 34.804 183.57 33.988C184.001 33.172 184.216 32.2427 184.216 31.2V27.324C184.216 25.8053 183.91 24.706 183.298 24.026C182.686 23.3233 181.711 22.972 180.374 22.972C179.513 22.972 178.674 23.0853 177.858 23.312C177.065 23.5387 176.215 23.9013 175.308 24.4C175.059 24.536 174.832 24.5813 174.628 24.536C174.447 24.4907 174.299 24.4 174.186 24.264C174.095 24.128 174.027 23.9693 173.982 23.788C173.959 23.584 173.993 23.3913 174.084 23.21C174.175 23.0287 174.333 22.8813 174.56 22.768C175.512 22.2467 176.475 21.8613 177.45 21.612C178.447 21.34 179.411 21.204 180.34 21.204C181.677 21.204 182.777 21.4307 183.638 21.884C184.522 22.3373 185.168 23.0173 185.576 23.924C186.007 24.8307 186.222 25.998 186.222 27.426V37.15C186.222 37.49 186.143 37.7507 185.984 37.932C185.825 38.1133 185.587 38.204 185.27 38.204C184.953 38.204 184.703 38.1133 184.522 37.932C184.341 37.7507 184.25 37.49 184.25 37.15V34.022H184.59C184.386 34.906 184.023 35.6653 183.502 36.3C182.981 36.9347 182.335 37.422 181.564 37.762C180.793 38.102 179.932 38.272 178.98 38.272ZM192.698 38.204C192.358 38.204 192.097 38.1133 191.916 37.932C191.734 37.7507 191.644 37.49 191.644 37.15V22.36C191.644 21.9973 191.734 21.7253 191.916 21.544C192.097 21.3627 192.358 21.272 192.698 21.272C193.015 21.272 193.253 21.3627 193.412 21.544C193.593 21.7253 193.684 21.9973 193.684 22.36V25.556L193.31 25.352C193.763 23.992 194.534 22.9607 195.622 22.258C196.732 21.5553 198.002 21.204 199.43 21.204C200.744 21.204 201.832 21.442 202.694 21.918C203.578 22.3713 204.235 23.074 204.666 24.026C205.096 24.978 205.312 26.168 205.312 27.596V37.15C205.312 37.49 205.221 37.7507 205.04 37.932C204.858 38.1133 204.609 38.204 204.292 38.204C203.952 38.204 203.691 38.1133 203.51 37.932C203.328 37.7507 203.238 37.49 203.238 37.15V27.766C203.238 26.1113 202.909 24.91 202.252 24.162C201.594 23.3913 200.552 23.006 199.124 23.006C197.492 23.006 196.177 23.516 195.18 24.536C194.205 25.5333 193.718 26.882 193.718 28.582V37.15C193.718 37.8527 193.378 38.204 192.698 38.204Z" fill="#EFEDE3"/>
<g clip-path="url(#clip0_48_19)">
<path d="M29.658 79.6579C30.6437 79.2844 31.3546 78.6136 31.7905 77.6456C32.2265 76.6776 32.2577 75.7007 31.8841 74.715C31.5105 73.7292 30.8398 73.0183 29.8718 72.5824C28.9038 72.1464 27.9269 72.1152 26.9411 72.4888C25.9554 72.8624 25.2445 73.5332 24.8086 74.5012C24.3726 75.4692 24.3414 76.446 24.715 77.4318C25.0885 78.4176 25.7593 79.1284 26.7273 79.5644C27.6953 80.0003 28.6722 80.0315 29.658 79.6579ZM34.6501 92.8312C37.0266 88.1046 38.5781 84.0407 39.3048 80.6396C40.0314 77.2384 39.9928 74.4775 39.1891 72.3566C37.9552 69.1006 35.9068 66.8279 33.044 65.5386C30.1812 64.2493 27.2413 64.1763 24.2243 65.3197C21.2073 66.463 19.0541 68.4661 17.7648 71.3289C16.4755 74.1917 16.4478 77.2511 17.6817 80.5071C18.4854 82.628 20.2864 84.7211 23.0846 86.7864C25.8828 88.8518 29.738 90.8667 34.6501 92.8312ZM36.45 97.5808C30.0899 95.311 25.0574 92.8711 21.3525 90.2611C17.6476 87.6512 15.2291 84.8526 14.0971 81.8655C12.3991 77.3848 12.4876 73.269 14.3627 69.518C16.2378 65.7671 19.0722 63.1728 22.8659 61.7351C26.6595 60.2974 30.5014 60.3617 34.3915 61.9278C38.2816 63.494 41.0756 66.5174 42.7737 70.9982C43.9057 73.9853 43.9494 77.6838 42.9047 82.0936C41.86 86.5035 39.7085 91.6659 36.45 97.5808Z" fill="#302F2C"/>
</g>
<defs>
<clipPath id="clip0_48_19">
<rect width="46" height="46" fill="white" transform="translate(0 66.301) rotate(-20.7548)"/>
</clipPath>
</defs>
</svg>
