<svg width="169" height="107" viewBox="0 0 169 107" fill="none" xmlns="http://www.w3.org/2000/svg">
<rect x="13" width="156" height="54" rx="4" fill="#302F2C"/>
<path d="M45.148 38.204C44.8307 38.204 44.5813 38.1133 44.4 37.932C44.2187 37.728 44.128 37.456 44.128 37.116V15.118C44.128 14.7553 44.2187 14.4833 44.4 14.302C44.604 14.1207 44.8647 14.03 45.182 14.03H53.172C55.7107 14.03 57.66 14.6193 59.02 15.798C60.38 16.9767 61.06 18.654 61.06 20.83C61.06 22.2353 60.754 23.448 60.142 24.468C59.53 25.4653 58.6233 26.2247 57.422 26.746C56.2433 27.2673 54.8267 27.528 53.172 27.528L53.546 27.086H54.022C54.8833 27.086 55.6313 27.3127 56.266 27.766C56.9233 28.2193 57.5127 28.956 58.034 29.976L61.638 36.674C61.7967 36.9233 61.8647 37.1727 61.842 37.422C61.842 37.6487 61.7627 37.8413 61.604 38C61.4453 38.136 61.2413 38.204 60.992 38.204C60.6973 38.204 60.448 38.136 60.244 38C60.0627 37.864 59.904 37.6713 59.768 37.422L55.96 30.316C55.3707 29.228 54.7133 28.514 53.988 28.174C53.2627 27.8113 52.288 27.63 51.064 27.63H46.202V37.116C46.202 37.456 46.1113 37.728 45.93 37.932C45.7713 38.1133 45.5107 38.204 45.148 38.204ZM46.202 25.862H52.9C54.9173 25.862 56.4247 25.4427 57.422 24.604C58.442 23.7427 58.952 22.4847 58.952 20.83C58.952 19.198 58.442 17.9627 57.422 17.124C56.4247 16.2627 54.9173 15.832 52.9 15.832H46.202V25.862ZM72.0125 38.272C70.6978 38.272 69.5985 38.034 68.7145 37.558C67.8532 37.082 67.2072 36.368 66.7765 35.416C66.3458 34.464 66.1305 33.2853 66.1305 31.88V22.36C66.1305 21.9973 66.2212 21.7253 66.4025 21.544C66.5838 21.3627 66.8445 21.272 67.1845 21.272C67.5018 21.272 67.7512 21.3627 67.9325 21.544C68.1138 21.7253 68.2045 21.9973 68.2045 22.36V31.778C68.2045 33.3647 68.5332 34.5547 69.1905 35.348C69.8478 36.1187 70.8792 36.504 72.2845 36.504C73.8258 36.504 75.0725 35.994 76.0245 34.974C76.9765 33.9313 77.4525 32.5713 77.4525 30.894V22.36C77.4525 21.9973 77.5432 21.7253 77.7245 21.544C77.9058 21.3627 78.1665 21.272 78.5065 21.272C78.8238 21.272 79.0732 21.3627 79.2545 21.544C79.4358 21.7253 79.5265 21.9973 79.5265 22.36V37.15C79.5265 37.8527 79.1978 38.204 78.5405 38.204C78.2232 38.204 77.9738 38.1133 77.7925 37.932C77.6112 37.7507 77.5205 37.49 77.5205 37.15V33.784L77.9285 34.022C77.4978 35.4047 76.7498 36.4587 75.6845 37.184C74.6192 37.9093 73.3952 38.272 72.0125 38.272ZM90.3635 38.272C89.3435 38.272 88.3235 38.136 87.3035 37.864C86.3062 37.592 85.3542 37.1273 84.4475 36.47C84.2662 36.3567 84.1415 36.2207 84.0735 36.062C84.0282 35.8807 84.0168 35.6993 84.0395 35.518C84.0848 35.3367 84.1642 35.1893 84.2775 35.076C84.4135 34.94 84.5722 34.8607 84.7535 34.838C84.9348 34.8153 85.1275 34.872 85.3315 35.008C86.2155 35.5973 87.0768 36.0053 87.9155 36.232C88.7542 36.4587 89.5928 36.572 90.4315 36.572C91.8142 36.572 92.8682 36.3113 93.5935 35.79C94.3188 35.2687 94.6815 34.566 94.6815 33.682C94.6815 32.9567 94.4435 32.4013 93.9675 32.016C93.5142 31.608 92.7662 31.2793 91.7235 31.03L88.7655 30.35C87.3375 30.0327 86.2835 29.5227 85.6035 28.82C84.9235 28.0947 84.5835 27.1653 84.5835 26.032C84.5835 25.0573 84.8328 24.2073 85.3315 23.482C85.8528 22.7567 86.5782 22.2013 87.5075 21.816C88.4595 21.408 89.5475 21.204 90.7715 21.204C91.7688 21.204 92.7208 21.3513 93.6275 21.646C94.5342 21.9407 95.3275 22.394 96.0075 23.006C96.1888 23.142 96.3022 23.3007 96.3475 23.482C96.4155 23.6633 96.4155 23.8447 96.3475 24.026C96.3022 24.1847 96.2115 24.3207 96.0755 24.434C95.9395 24.5473 95.7808 24.604 95.5995 24.604C95.4182 24.604 95.2255 24.536 95.0215 24.4C94.3642 23.9013 93.6728 23.5387 92.9475 23.312C92.2222 23.0627 91.4855 22.938 90.7375 22.938C89.4228 22.938 88.4028 23.21 87.6775 23.754C86.9748 24.298 86.6235 25.0347 86.6235 25.964C86.6235 26.6667 86.8388 27.2333 87.2695 27.664C87.7228 28.0947 88.4255 28.4233 89.3775 28.65L92.3355 29.33C93.8088 29.67 94.9082 30.18 95.6335 30.86C96.3588 31.5173 96.7215 32.4127 96.7215 33.546C96.7215 34.9967 96.1435 36.1527 94.9875 37.014C93.8542 37.8527 92.3128 38.272 90.3635 38.272ZM106.6 38.272C105.58 38.272 104.56 38.136 103.54 37.864C102.542 37.592 101.59 37.1273 100.684 36.47C100.502 36.3567 100.378 36.2207 100.31 36.062C100.264 35.8807 100.253 35.6993 100.276 35.518C100.321 35.3367 100.4 35.1893 100.514 35.076C100.65 34.94 100.808 34.8607 100.99 34.838C101.171 34.8153 101.364 34.872 101.568 35.008C102.452 35.5973 103.313 36.0053 104.152 36.232C104.99 36.4587 105.829 36.572 106.668 36.572C108.05 36.572 109.104 36.3113 109.83 35.79C110.555 35.2687 110.918 34.566 110.918 33.682C110.918 32.9567 110.68 32.4013 110.204 32.016C109.75 31.608 109.002 31.2793 107.96 31.03L105.002 30.35C103.574 30.0327 102.52 29.5227 101.84 28.82C101.16 28.0947 100.82 27.1653 100.82 26.032C100.82 25.0573 101.069 24.2073 101.568 23.482C102.089 22.7567 102.814 22.2013 103.744 21.816C104.696 21.408 105.784 21.204 107.008 21.204C108.005 21.204 108.957 21.3513 109.864 21.646C110.77 21.9407 111.564 22.394 112.244 23.006C112.425 23.142 112.538 23.3007 112.584 23.482C112.652 23.6633 112.652 23.8447 112.584 24.026C112.538 24.1847 112.448 24.3207 112.312 24.434C112.176 24.5473 112.017 24.604 111.836 24.604C111.654 24.604 111.462 24.536 111.258 24.4C110.6 23.9013 109.909 23.5387 109.184 23.312C108.458 23.0627 107.722 22.938 106.974 22.938C105.659 22.938 104.639 23.21 103.914 23.754C103.211 24.298 102.86 25.0347 102.86 25.964C102.86 26.6667 103.075 27.2333 103.506 27.664C103.959 28.0947 104.662 28.4233 105.614 28.65L108.572 29.33C110.045 29.67 111.144 30.18 111.87 30.86C112.595 31.5173 112.958 32.4127 112.958 33.546C112.958 34.9967 112.38 36.1527 111.224 37.014C110.09 37.8527 108.549 38.272 106.6 38.272ZM118.518 38.136C118.178 38.136 117.917 38.034 117.736 37.83C117.555 37.626 117.464 37.354 117.464 37.014V22.462C117.464 22.0993 117.555 21.8273 117.736 21.646C117.917 21.4647 118.178 21.374 118.518 21.374C118.835 21.374 119.085 21.4647 119.266 21.646C119.447 21.8273 119.538 22.0993 119.538 22.462V37.014C119.538 37.354 119.447 37.626 119.266 37.83C119.107 38.034 118.858 38.136 118.518 38.136ZM118.518 17.26C118.042 17.26 117.668 17.1353 117.396 16.886C117.147 16.6367 117.022 16.2853 117.022 15.832C117.022 15.3787 117.147 15.0387 117.396 14.812C117.668 14.5627 118.042 14.438 118.518 14.438C118.994 14.438 119.357 14.5627 119.606 14.812C119.878 15.0387 120.014 15.3787 120.014 15.832C120.014 16.2853 119.878 16.6367 119.606 16.886C119.357 17.1353 118.994 17.26 118.518 17.26ZM130.101 38.272C128.991 38.272 127.993 38.0567 127.109 37.626C126.248 37.1953 125.557 36.606 125.035 35.858C124.537 35.11 124.287 34.2713 124.287 33.342C124.287 32.118 124.593 31.1547 125.205 30.452C125.817 29.7493 126.849 29.262 128.299 28.99C129.75 28.6953 131.745 28.548 134.283 28.548H135.745V30.078H134.317C132.277 30.078 130.679 30.1687 129.523 30.35C128.39 30.5087 127.597 30.8147 127.143 31.268C126.69 31.7213 126.463 32.356 126.463 33.172C126.463 34.192 126.815 35.0193 127.517 35.654C128.22 36.2887 129.172 36.606 130.373 36.606C131.348 36.606 132.198 36.3793 132.923 35.926C133.671 35.45 134.261 34.804 134.691 33.988C135.122 33.172 135.337 32.2427 135.337 31.2V27.324C135.337 25.8053 135.031 24.706 134.419 24.026C133.807 23.3233 132.833 22.972 131.495 22.972C130.634 22.972 129.795 23.0853 128.979 23.312C128.186 23.5387 127.336 23.9013 126.429 24.4C126.18 24.536 125.953 24.5813 125.749 24.536C125.568 24.4907 125.421 24.4 125.307 24.264C125.217 24.128 125.149 23.9693 125.103 23.788C125.081 23.584 125.115 23.3913 125.205 23.21C125.296 23.0287 125.455 22.8813 125.681 22.768C126.633 22.2467 127.597 21.8613 128.571 21.612C129.569 21.34 130.532 21.204 131.461 21.204C132.799 21.204 133.898 21.4307 134.759 21.884C135.643 22.3373 136.289 23.0173 136.697 23.924C137.128 24.8307 137.343 25.998 137.343 27.426V37.15C137.343 37.49 137.264 37.7507 137.105 37.932C136.947 38.1133 136.709 38.204 136.391 38.204C136.074 38.204 135.825 38.1133 135.643 37.932C135.462 37.7507 135.371 37.49 135.371 37.15V34.022H135.711C135.507 34.906 135.145 35.6653 134.623 36.3C134.102 36.9347 133.456 37.422 132.685 37.762C131.915 38.102 131.053 38.272 130.101 38.272Z" fill="#EFEDE3"/>
<path d="M28.1691 78.1691C29.1874 78.442 30.1562 78.313 31.0756 77.7821C31.995 77.2513 32.5911 76.4768 32.864 75.4585C33.1368 74.4403 33.0078 73.4715 32.477 72.5521C31.9462 71.6326 31.1717 71.0365 30.1534 70.7637C29.1352 70.4908 28.1663 70.6198 27.2469 71.1507C26.3275 71.6815 25.7314 72.456 25.4586 73.4743C25.1857 74.4925 25.3147 75.4613 25.8455 76.3807C26.3764 77.3002 27.1509 77.8963 28.1691 78.1691ZM24.523 91.7766C29.2134 89.3294 32.8472 86.9381 35.4242 84.6025C38.0012 82.267 39.5832 80.0039 40.1702 77.8131C41.0714 74.4498 40.7371 71.4086 39.1672 68.6895C37.5973 65.9704 35.2541 64.1933 32.1377 63.3583C29.0212 62.5232 26.1035 62.8906 23.3844 64.4605C20.6653 66.0304 18.8551 68.497 17.9539 71.8603C17.3669 74.051 17.6054 76.802 18.6694 80.1131C19.7334 83.4242 21.6846 87.3121 24.523 91.7766ZM23.2084 96.6827C19.3733 91.1243 16.715 86.2037 15.2334 81.9208C13.7518 77.6379 13.4244 73.9537 14.2512 70.8681C15.4914 66.2397 17.9682 62.9514 21.6816 61.003C25.3951 59.0547 29.2111 58.6055 33.1298 59.6555C37.0485 60.7056 40.1288 63.0026 42.3705 66.5466C44.6123 70.0906 45.1131 74.1768 43.8729 78.8052C43.0461 81.8908 40.9205 84.9178 37.496 87.8861C34.0714 90.8543 29.3089 93.7866 23.2084 96.6827Z" fill="#302F2C"/>
</svg>
