<svg width="280" height="109" viewBox="0 0 280 109" fill="none" xmlns="http://www.w3.org/2000/svg">
<rect x="19.8104" width="260" height="54" rx="4" fill="#302F2C"/>
<path d="M60.1184 38.272C58.5997 38.272 57.251 38.068 56.0724 37.66C54.8937 37.252 53.9077 36.64 53.1144 35.824C52.3437 35.008 51.7544 33.9993 51.3464 32.798C50.961 31.5967 50.7684 30.214 50.7684 28.65V14.88C50.7684 14.5173 50.859 14.2567 51.0404 14.098C51.2217 13.9167 51.471 13.826 51.7884 13.826C52.1284 13.826 52.389 13.9167 52.5704 14.098C52.7517 14.2567 52.8424 14.5173 52.8424 14.88V28.48C52.8424 31.132 53.4544 33.1153 54.6784 34.43C55.925 35.722 57.7384 36.368 60.1184 36.368C62.521 36.368 64.3344 35.722 65.5584 34.43C66.7824 33.1153 67.3944 31.132 67.3944 28.48V14.88C67.3944 14.5173 67.485 14.2567 67.6664 14.098C67.8477 13.9167 68.1084 13.826 68.4484 13.826C68.7657 13.826 69.015 13.9167 69.1964 14.098C69.3777 14.2567 69.4684 14.5173 69.4684 14.88V28.65C69.4684 30.7353 69.117 32.5033 68.4144 33.954C67.7117 35.382 66.6577 36.4587 65.2524 37.184C63.8697 37.9093 62.1584 38.272 60.1184 38.272ZM76.1879 38.204C75.8479 38.204 75.5872 38.1133 75.4059 37.932C75.2245 37.7507 75.1339 37.49 75.1339 37.15V22.36C75.1339 21.9973 75.2245 21.7253 75.4059 21.544C75.5872 21.3627 75.8479 21.272 76.1879 21.272C76.5052 21.272 76.7432 21.3627 76.9019 21.544C77.0832 21.7253 77.1739 21.9973 77.1739 22.36V25.556L76.7999 25.352C77.2532 23.992 78.0239 22.9607 79.1119 22.258C80.2225 21.5553 81.4919 21.204 82.9199 21.204C84.2345 21.204 85.3225 21.442 86.1839 21.918C87.0679 22.3713 87.7252 23.074 88.1559 24.026C88.5865 24.978 88.8019 26.168 88.8019 27.596V37.15C88.8019 37.49 88.7112 37.7507 88.5299 37.932C88.3485 38.1133 88.0992 38.204 87.7819 38.204C87.4419 38.204 87.1812 38.1133 86.9999 37.932C86.8185 37.7507 86.7279 37.49 86.7279 37.15V27.766C86.7279 26.1113 86.3992 24.91 85.7419 24.162C85.0845 23.3913 84.0419 23.006 82.6139 23.006C80.9819 23.006 79.6672 23.516 78.6699 24.536C77.6952 25.5333 77.2079 26.882 77.2079 28.582V37.15C77.2079 37.8527 76.8679 38.204 76.1879 38.204ZM95.2133 38.136C94.8733 38.136 94.6126 38.034 94.4313 37.83C94.2499 37.626 94.1593 37.354 94.1593 37.014V22.462C94.1593 22.0993 94.2499 21.8273 94.4313 21.646C94.6126 21.4647 94.8733 21.374 95.2133 21.374C95.5306 21.374 95.7799 21.4647 95.9613 21.646C96.1426 21.8273 96.2333 22.0993 96.2333 22.462V37.014C96.2333 37.354 96.1426 37.626 95.9613 37.83C95.8026 38.034 95.5533 38.136 95.2133 38.136ZM95.2133 17.26C94.7373 17.26 94.3633 17.1353 94.0913 16.886C93.8419 16.6367 93.7173 16.2853 93.7173 15.832C93.7173 15.3787 93.8419 15.0387 94.0913 14.812C94.3633 14.5627 94.7373 14.438 95.2133 14.438C95.6893 14.438 96.0519 14.5627 96.3013 14.812C96.5733 15.0387 96.7093 15.3787 96.7093 15.832C96.7093 16.2853 96.5733 16.6367 96.3013 16.886C96.0519 17.1353 95.6893 17.26 95.2133 17.26ZM107.918 38.272C106.694 38.272 105.674 38.0453 104.858 37.592C104.042 37.1387 103.43 36.4927 103.022 35.654C102.614 34.7927 102.41 33.7387 102.41 32.492V23.176H99.8944C99.5997 23.176 99.3617 23.108 99.1804 22.972C98.999 22.8133 98.9084 22.598 98.9084 22.326C98.9084 22.0767 98.999 21.884 99.1804 21.748C99.3617 21.5893 99.5997 21.51 99.8944 21.51H102.41V17.26C102.41 16.8973 102.501 16.6367 102.682 16.478C102.864 16.2967 103.124 16.206 103.464 16.206C103.782 16.206 104.031 16.2967 104.212 16.478C104.394 16.6367 104.484 16.8973 104.484 17.26V21.51H109.074C109.392 21.51 109.63 21.5893 109.788 21.748C109.947 21.884 110.026 22.0767 110.026 22.326C110.026 22.598 109.947 22.8133 109.788 22.972C109.63 23.108 109.392 23.176 109.074 23.176H104.484V32.22C104.484 33.6027 104.768 34.6567 105.334 35.382C105.901 36.1073 106.842 36.47 108.156 36.47C108.61 36.47 108.984 36.4247 109.278 36.334C109.596 36.2207 109.856 36.164 110.06 36.164C110.219 36.164 110.355 36.232 110.468 36.368C110.604 36.504 110.672 36.7193 110.672 37.014C110.672 37.1953 110.627 37.3767 110.536 37.558C110.468 37.7393 110.332 37.8527 110.128 37.898C109.879 37.9887 109.539 38.068 109.108 38.136C108.678 38.2267 108.281 38.272 107.918 38.272ZM120.093 38.272C118.393 38.272 116.931 37.932 115.707 37.252C114.483 36.572 113.542 35.5973 112.885 34.328C112.228 33.0587 111.899 31.5513 111.899 29.806C111.899 28.0833 112.228 26.5873 112.885 25.318C113.542 24.026 114.449 23.0173 115.605 22.292C116.784 21.5667 118.132 21.204 119.651 21.204C120.762 21.204 121.736 21.3967 122.575 21.782C123.436 22.1447 124.162 22.6773 124.751 23.38C125.363 24.06 125.828 24.8987 126.145 25.896C126.462 26.8707 126.621 27.9813 126.621 29.228C126.621 29.5453 126.53 29.7833 126.349 29.942C126.19 30.1007 125.964 30.18 125.669 30.18H113.395V28.65H125.329L124.785 29.092C124.785 27.7773 124.592 26.6667 124.207 25.76C123.822 24.8307 123.244 24.1167 122.473 23.618C121.725 23.1193 120.796 22.87 119.685 22.87C118.438 22.87 117.384 23.1647 116.523 23.754C115.662 24.3207 115.016 25.114 114.585 26.134C114.154 27.1313 113.939 28.2873 113.939 29.602V29.772C113.939 31.948 114.472 33.6253 115.537 34.804C116.602 35.96 118.098 36.538 120.025 36.538C120.864 36.538 121.668 36.4247 122.439 36.198C123.232 35.9713 124.003 35.586 124.751 35.042C124.978 34.8833 125.193 34.804 125.397 34.804C125.624 34.804 125.805 34.8607 125.941 34.974C126.1 35.0873 126.202 35.2347 126.247 35.416C126.315 35.5747 126.304 35.756 126.213 35.96C126.145 36.1413 125.998 36.3113 125.771 36.47C125.046 37.0593 124.173 37.5127 123.153 37.83C122.133 38.1247 121.113 38.272 120.093 38.272ZM137.139 38.272C135.665 38.272 134.373 37.932 133.263 37.252C132.175 36.5493 131.325 35.5633 130.713 34.294C130.123 33.002 129.829 31.4833 129.829 29.738C129.829 27.9927 130.123 26.4853 130.713 25.216C131.302 23.9467 132.141 22.9607 133.229 22.258C134.339 21.5553 135.643 21.204 137.139 21.204C138.68 21.204 139.995 21.6007 141.083 22.394C142.171 23.1873 142.896 24.2527 143.259 25.59H142.885V14.88C142.885 14.5173 142.975 14.2567 143.157 14.098C143.338 13.9167 143.587 13.826 143.905 13.826C144.245 13.826 144.505 13.9167 144.687 14.098C144.868 14.2567 144.959 14.5173 144.959 14.88V37.15C144.959 37.49 144.868 37.7507 144.687 37.932C144.505 38.1133 144.256 38.204 143.939 38.204C143.599 38.204 143.338 38.1133 143.157 37.932C142.975 37.7507 142.885 37.49 142.885 37.15V33.648L143.259 33.886C142.896 35.2233 142.171 36.2887 141.083 37.082C139.995 37.8753 138.68 38.272 137.139 38.272ZM137.411 36.538C138.544 36.538 139.519 36.2773 140.335 35.756C141.173 35.212 141.808 34.43 142.239 33.41C142.692 32.39 142.919 31.166 142.919 29.738C142.919 27.5847 142.42 25.9187 141.423 24.74C140.448 23.5613 139.111 22.972 137.411 22.972C136.3 22.972 135.325 23.244 134.487 23.788C133.671 24.3093 133.036 25.08 132.583 26.1C132.152 27.0973 131.937 28.31 131.937 29.738C131.937 31.914 132.435 33.5913 133.433 34.77C134.43 35.9487 135.756 36.538 137.411 36.538ZM166.86 38.272C165.772 38.272 164.718 38.1813 163.698 38C162.678 37.8187 161.726 37.5467 160.842 37.184C159.98 36.7987 159.198 36.334 158.496 35.79C158.269 35.6313 158.11 35.45 158.02 35.246C157.952 35.0193 157.94 34.8153 157.986 34.634C158.054 34.43 158.156 34.26 158.292 34.124C158.45 33.988 158.632 33.92 158.836 33.92C159.04 33.8973 159.255 33.9653 159.482 34.124C160.524 34.8947 161.624 35.4613 162.78 35.824C163.958 36.1867 165.318 36.368 166.86 36.368C169.013 36.368 170.622 35.9487 171.688 35.11C172.776 34.2713 173.32 33.172 173.32 31.812C173.32 30.6787 172.923 29.7947 172.13 29.16C171.359 28.5253 170.078 28.0267 168.288 27.664L164.854 26.95C162.7 26.5193 161.102 25.794 160.06 24.774C159.017 23.754 158.496 22.394 158.496 20.694C158.496 19.6513 158.7 18.7107 159.108 17.872C159.516 17.0107 160.094 16.274 160.842 15.662C161.59 15.05 162.474 14.5853 163.494 14.268C164.536 13.928 165.681 13.758 166.928 13.758C168.401 13.758 169.75 13.962 170.974 14.37C172.22 14.778 173.354 15.424 174.374 16.308C174.578 16.4667 174.714 16.6593 174.782 16.886C174.85 17.09 174.85 17.294 174.782 17.498C174.714 17.6793 174.612 17.8267 174.476 17.94C174.34 18.0533 174.17 18.1213 173.966 18.144C173.762 18.144 173.546 18.0533 173.32 17.872C172.368 17.1013 171.37 16.546 170.328 16.206C169.308 15.8433 168.174 15.662 166.928 15.662C165.658 15.662 164.548 15.866 163.596 16.274C162.666 16.682 161.941 17.26 161.42 18.008C160.898 18.756 160.638 19.64 160.638 20.66C160.638 21.8387 161 22.7793 161.726 23.482C162.451 24.1847 163.618 24.6947 165.228 25.012L168.696 25.726C170.985 26.202 172.685 26.916 173.796 27.868C174.906 28.7973 175.462 30.078 175.462 31.71C175.462 32.6847 175.258 33.58 174.85 34.396C174.464 35.1893 173.898 35.8807 173.15 36.47C172.402 37.0593 171.495 37.5127 170.43 37.83C169.387 38.1247 168.197 38.272 166.86 38.272ZM185.846 38.272C184.622 38.272 183.602 38.0453 182.786 37.592C181.97 37.1387 181.358 36.4927 180.95 35.654C180.542 34.7927 180.338 33.7387 180.338 32.492V23.176H177.822C177.527 23.176 177.289 23.108 177.108 22.972C176.927 22.8133 176.836 22.598 176.836 22.326C176.836 22.0767 176.927 21.884 177.108 21.748C177.289 21.5893 177.527 21.51 177.822 21.51H180.338V17.26C180.338 16.8973 180.429 16.6367 180.61 16.478C180.791 16.2967 181.052 16.206 181.392 16.206C181.709 16.206 181.959 16.2967 182.14 16.478C182.321 16.6367 182.412 16.8973 182.412 17.26V21.51H187.002C187.319 21.51 187.557 21.5893 187.716 21.748C187.875 21.884 187.954 22.0767 187.954 22.326C187.954 22.598 187.875 22.8133 187.716 22.972C187.557 23.108 187.319 23.176 187.002 23.176H182.412V32.22C182.412 33.6027 182.695 34.6567 183.262 35.382C183.829 36.1073 184.769 36.47 186.084 36.47C186.537 36.47 186.911 36.4247 187.206 36.334C187.523 36.2207 187.784 36.164 187.988 36.164C188.147 36.164 188.283 36.232 188.396 36.368C188.532 36.504 188.6 36.7193 188.6 37.014C188.6 37.1953 188.555 37.3767 188.464 37.558C188.396 37.7393 188.26 37.8527 188.056 37.898C187.807 37.9887 187.467 38.068 187.036 38.136C186.605 38.2267 186.209 38.272 185.846 38.272ZM196.113 38.272C195.002 38.272 194.005 38.0567 193.121 37.626C192.259 37.1953 191.568 36.606 191.047 35.858C190.548 35.11 190.299 34.2713 190.299 33.342C190.299 32.118 190.605 31.1547 191.217 30.452C191.829 29.7493 192.86 29.262 194.311 28.99C195.761 28.6953 197.756 28.548 200.295 28.548H201.757V30.078H200.329C198.289 30.078 196.691 30.1687 195.535 30.35C194.401 30.5087 193.608 30.8147 193.155 31.268C192.701 31.7213 192.475 32.356 192.475 33.172C192.475 34.192 192.826 35.0193 193.529 35.654C194.231 36.2887 195.183 36.606 196.385 36.606C197.359 36.606 198.209 36.3793 198.935 35.926C199.683 35.45 200.272 34.804 200.703 33.988C201.133 33.172 201.349 32.2427 201.349 31.2V27.324C201.349 25.8053 201.043 24.706 200.431 24.026C199.819 23.3233 198.844 22.972 197.507 22.972C196.645 22.972 195.807 23.0853 194.991 23.312C194.197 23.5387 193.347 23.9013 192.441 24.4C192.191 24.536 191.965 24.5813 191.761 24.536C191.579 24.4907 191.432 24.4 191.319 24.264C191.228 24.128 191.16 23.9693 191.115 23.788C191.092 23.584 191.126 23.3913 191.217 23.21C191.307 23.0287 191.466 22.8813 191.693 22.768C192.645 22.2467 193.608 21.8613 194.583 21.612C195.58 21.34 196.543 21.204 197.473 21.204C198.81 21.204 199.909 21.4307 200.771 21.884C201.655 22.3373 202.301 23.0173 202.709 23.924C203.139 24.8307 203.355 25.998 203.355 27.426V37.15C203.355 37.49 203.275 37.7507 203.117 37.932C202.958 38.1133 202.72 38.204 202.403 38.204C202.085 38.204 201.836 38.1133 201.655 37.932C201.473 37.7507 201.383 37.49 201.383 37.15V34.022H201.723C201.519 34.906 201.156 35.6653 200.635 36.3C200.113 36.9347 199.467 37.422 198.697 37.762C197.926 38.102 197.065 38.272 196.113 38.272ZM214.998 38.272C213.774 38.272 212.754 38.0453 211.938 37.592C211.122 37.1387 210.51 36.4927 210.102 35.654C209.694 34.7927 209.49 33.7387 209.49 32.492V23.176H206.974C206.68 23.176 206.442 23.108 206.26 22.972C206.079 22.8133 205.988 22.598 205.988 22.326C205.988 22.0767 206.079 21.884 206.26 21.748C206.442 21.5893 206.68 21.51 206.974 21.51H209.49V17.26C209.49 16.8973 209.581 16.6367 209.762 16.478C209.944 16.2967 210.204 16.206 210.544 16.206C210.862 16.206 211.111 16.2967 211.292 16.478C211.474 16.6367 211.564 16.8973 211.564 17.26V21.51H216.154C216.472 21.51 216.71 21.5893 216.868 21.748C217.027 21.884 217.106 22.0767 217.106 22.326C217.106 22.598 217.027 22.8133 216.868 22.972C216.71 23.108 216.472 23.176 216.154 23.176H211.564V32.22C211.564 33.6027 211.848 34.6567 212.414 35.382C212.981 36.1073 213.922 36.47 215.236 36.47C215.69 36.47 216.064 36.4247 216.358 36.334C216.676 36.2207 216.936 36.164 217.14 36.164C217.299 36.164 217.435 36.232 217.548 36.368C217.684 36.504 217.752 36.7193 217.752 37.014C217.752 37.1953 217.707 37.3767 217.616 37.558C217.548 37.7393 217.412 37.8527 217.208 37.898C216.959 37.9887 216.619 38.068 216.188 38.136C215.758 38.2267 215.361 38.272 214.998 38.272ZM227.173 38.272C225.473 38.272 224.011 37.932 222.787 37.252C221.563 36.572 220.622 35.5973 219.965 34.328C219.308 33.0587 218.979 31.5513 218.979 29.806C218.979 28.0833 219.308 26.5873 219.965 25.318C220.622 24.026 221.529 23.0173 222.685 22.292C223.864 21.5667 225.212 21.204 226.731 21.204C227.842 21.204 228.816 21.3967 229.655 21.782C230.516 22.1447 231.242 22.6773 231.831 23.38C232.443 24.06 232.908 24.8987 233.225 25.896C233.542 26.8707 233.701 27.9813 233.701 29.228C233.701 29.5453 233.61 29.7833 233.429 29.942C233.27 30.1007 233.044 30.18 232.749 30.18H220.475V28.65H232.409L231.865 29.092C231.865 27.7773 231.672 26.6667 231.287 25.76C230.902 24.8307 230.324 24.1167 229.553 23.618C228.805 23.1193 227.876 22.87 226.765 22.87C225.518 22.87 224.464 23.1647 223.603 23.754C222.742 24.3207 222.096 25.114 221.665 26.134C221.234 27.1313 221.019 28.2873 221.019 29.602V29.772C221.019 31.948 221.552 33.6253 222.617 34.804C223.682 35.96 225.178 36.538 227.105 36.538C227.944 36.538 228.748 36.4247 229.519 36.198C230.312 35.9713 231.083 35.586 231.831 35.042C232.058 34.8833 232.273 34.804 232.477 34.804C232.704 34.804 232.885 34.8607 233.021 34.974C233.18 35.0873 233.282 35.2347 233.327 35.416C233.395 35.5747 233.384 35.756 233.293 35.96C233.225 36.1413 233.078 36.3113 232.851 36.47C232.126 37.0593 231.253 37.5127 230.233 37.83C229.213 38.1247 228.193 38.272 227.173 38.272ZM243.301 38.272C242.281 38.272 241.261 38.136 240.241 37.864C239.243 37.592 238.291 37.1273 237.385 36.47C237.203 36.3567 237.079 36.2207 237.011 36.062C236.965 35.8807 236.954 35.6993 236.977 35.518C237.022 35.3367 237.101 35.1893 237.215 35.076C237.351 34.94 237.509 34.8607 237.691 34.838C237.872 34.8153 238.065 34.872 238.269 35.008C239.153 35.5973 240.014 36.0053 240.853 36.232C241.691 36.4587 242.53 36.572 243.369 36.572C244.751 36.572 245.805 36.3113 246.531 35.79C247.256 35.2687 247.619 34.566 247.619 33.682C247.619 32.9567 247.381 32.4013 246.905 32.016C246.451 31.608 245.703 31.2793 244.661 31.03L241.703 30.35C240.275 30.0327 239.221 29.5227 238.541 28.82C237.861 28.0947 237.521 27.1653 237.521 26.032C237.521 25.0573 237.77 24.2073 238.269 23.482C238.79 22.7567 239.515 22.2013 240.445 21.816C241.397 21.408 242.485 21.204 243.709 21.204C244.706 21.204 245.658 21.3513 246.565 21.646C247.471 21.9407 248.265 22.394 248.945 23.006C249.126 23.142 249.239 23.3007 249.285 23.482C249.353 23.6633 249.353 23.8447 249.285 24.026C249.239 24.1847 249.149 24.3207 249.013 24.434C248.877 24.5473 248.718 24.604 248.537 24.604C248.355 24.604 248.163 24.536 247.959 24.4C247.301 23.9013 246.61 23.5387 245.885 23.312C245.159 23.0627 244.423 22.938 243.675 22.938C242.36 22.938 241.34 23.21 240.615 23.754C239.912 24.298 239.561 25.0347 239.561 25.964C239.561 26.6667 239.776 27.2333 240.207 27.664C240.66 28.0947 241.363 28.4233 242.315 28.65L245.273 29.33C246.746 29.67 247.845 30.18 248.571 30.86C249.296 31.5173 249.659 32.4127 249.659 33.546C249.659 34.9967 249.081 36.1527 247.925 37.014C246.791 37.8527 245.25 38.272 243.301 38.272Z" fill="#EFEDE3"/>
<g clip-path="url(#clip0_48_18)">
<path d="M28.1691 80.3588C29.1874 80.6317 30.1562 80.5027 31.0756 79.9718C31.995 79.441 32.5911 78.6665 32.864 77.6482C33.1368 76.63 33.0078 75.6612 32.477 74.7418C31.9462 73.8223 31.1717 73.2262 30.1534 72.9534C29.1352 72.6805 28.1663 72.8095 27.2469 73.3404C26.3275 73.8712 25.7314 74.6457 25.4586 75.664C25.1857 76.6822 25.3147 77.651 25.8455 78.5704C26.3764 79.4899 27.1509 80.086 28.1691 80.3588ZM24.523 93.9663C29.2134 91.5191 32.8472 89.1277 35.4242 86.7922C38.0012 84.4567 39.5832 82.1936 40.1702 80.0028C41.0714 76.6395 40.7371 73.5983 39.1672 70.8792C37.5973 68.1601 35.2541 66.383 32.1377 65.548C29.0212 64.7129 26.1035 65.0803 23.3844 66.6502C20.6653 68.2201 18.8551 70.6867 17.9539 74.05C17.3669 76.2407 17.6054 78.9917 18.6694 82.3028C19.7334 85.6139 21.6846 89.5018 24.523 93.9663ZM23.2084 98.8724C19.3733 93.314 16.715 88.3934 15.2334 84.1105C13.7518 79.8276 13.4244 76.1434 14.2512 73.0578C15.4914 68.4294 17.9682 65.1411 21.6816 63.1927C25.3951 61.2444 29.2111 60.7952 33.1298 61.8452C37.0485 62.8953 40.1288 65.1923 42.3705 68.7363C44.6123 72.2803 45.1131 76.3665 43.8729 80.9949C43.0461 84.0805 40.9205 87.1075 37.496 90.0758C34.0714 93.044 29.3089 95.9762 23.2084 98.8724Z" fill="#302F2C"/>
</g>
<defs>
<clipPath id="clip0_48_18">
<rect width="46" height="46" fill="white" transform="translate(11.9057 52.1897) rotate(15)"/>
</clipPath>
</defs>
</svg>
